# xmcd
#
# Track frame offsets:
# 150
# 23670
# 46835
# 65770
# 82797
# 104094
# 122987
# 141604
#
# Disc length: 2110 seconds
#
#
# Revision: 0
# Processed by: cddbd v1.5.2PL0 Copyright (c) Steve Scherf et al.
# Submitted via: FreeRIP 2.945 
#
DISCID=70083c08
DTITLE=Jean carn - When I Find you Love
DYEAR=1900
DGENRE=R&B
TTITLE0=When I Find you Love
TTITLE1=Intro/My Love Don't Come Easy
TTITLE2=Start The Fire
TTITLE3=All I Really Need Is You
TTITLE4=Lonely Girl In A Cold Cold World
TTITLE5=What's on Your Mind
TTITLE6=Give It Up
TTITLE7=Was That All It Was
EXTD=
EXTT0=
EXTT1=
EXTT2=
EXTT3=
EXTT4=
EXTT5=
EXTT6=
EXTT7=
PLAYORDER=
